<svg width="18" height="18" viewBox="0 0 18 18" fill="none" xmlns="http://www.w3.org/2000/svg">
<path d="M10.5919 9.00079L17.6702 1.92251C18.1099 1.48312 18.1099 0.770191 17.6702 0.330801C17.2304 -0.108965 16.5182 -0.108965 16.0785 0.330801L9.00019 7.40908L1.92154 0.330801C1.48177 -0.108965 0.76959 -0.108965 0.329824 0.330801C-0.109941 0.770191 -0.109941 1.48312 0.329824 1.92251L7.40848 9.00079L0.329824 16.0791C-0.109941 16.5185 -0.109941 17.2314 0.329824 17.6708C0.549707 17.8903 0.837881 18.0002 1.12568 18.0002C1.41348 18.0002 1.70165 17.8903 1.92154 17.6704L9.00019 10.5921L16.0785 17.6704C16.2983 17.8903 16.5865 18.0002 16.8743 18.0002C17.1621 18.0002 17.4503 17.8903 17.6702 17.6704C18.1099 17.231 18.1099 16.5181 17.6702 16.0787L10.5919 9.00079Z" fill="#817E71"/>
</svg>
