<svg width="95" height="45" viewBox="0 0 95 45" fill="none" xmlns="http://www.w3.org/2000/svg">
<path d="M5.00001 1.49999C4.72386 1.49999 4.50001 1.27614 4.50001 0.999994C4.50001 0.723852 4.72386 0.499994 5.00001 0.499994L5.00001 1.49999ZM90 41.5C90.2761 41.5 90.5 41.7239 90.5 42C90.5 42.2761 90.2761 42.5 90 42.5L90 41.5ZM48.1609 11L47.6609 11L48.1609 11ZM47.6609 32L47.6609 11L48.6609 11L48.6609 32L47.6609 32ZM38.1609 1.5L5.00001 1.49999L5.00001 0.499994L38.1609 0.499997L38.1609 1.5ZM58.1609 41.5L90 41.5L90 42.5L58.1609 42.5L58.1609 41.5ZM47.6609 11C47.6609 5.75329 43.4076 1.5 38.1609 1.5L38.1609 0.499997C43.9599 0.499997 48.6609 5.20101 48.6609 11L47.6609 11ZM48.6609 32C48.6609 37.2467 52.9142 41.5 58.1609 41.5L58.1609 42.5C52.3619 42.5 47.6609 37.799 47.6609 32L48.6609 32Z" fill="#B9A090"/>
<circle r="2.25" transform="matrix(-1 0 0 1 92 42)" stroke="#B9A090" stroke-width="1.5"/>
</svg>
