<svg width="95" height="45" viewBox="0 0 95 45" fill="none" xmlns="http://www.w3.org/2000/svg">
<path d="M5.00001 43.5C4.72386 43.5 4.50001 43.7239 4.50001 44C4.50001 44.2761 4.72386 44.5 5.00001 44.5L5.00001 43.5ZM90 3.5C90.2761 3.5 90.5 3.27614 90.5 3C90.5 2.72386 90.2761 2.5 90 2.5L90 3.5ZM48.1609 34L47.6609 34L48.1609 34ZM47.6609 13L47.6609 34L48.6609 34L48.6609 13L47.6609 13ZM38.1609 43.5L5.00001 43.5L5.00001 44.5L38.1609 44.5L38.1609 43.5ZM58.1609 3.5L90 3.5L90 2.5L58.1609 2.5L58.1609 3.5ZM47.6609 34C47.6609 39.2467 43.4076 43.5 38.1609 43.5L38.1609 44.5C43.9599 44.5 48.6609 39.799 48.6609 34L47.6609 34ZM48.6609 13C48.6609 7.7533 52.9142 3.5 58.1609 3.5L58.1609 2.5C52.3619 2.5 47.6609 7.20101 47.6609 13L48.6609 13Z" fill="#B9A090"/>
<circle cx="92" cy="3" r="2.25" transform="rotate(180 92 3)" stroke="#B9A090" stroke-width="1.5"/>
</svg>
