<svg width="16" height="16" viewBox="0 0 16 16" fill="none" xmlns="http://www.w3.org/2000/svg">
<path fill-rule="evenodd" clip-rule="evenodd" d="M2.28571 4.57143C2.28571 5.2 1.77143 5.71429 1.14286 5.71429C0.514286 5.71429 0 5.2 0 4.57143V1.14286C0 0.514286 0.514286 0 1.14286 0H4.57143C5.2 0 5.71429 0.514286 5.71429 1.14286C5.71429 1.77143 5.2 2.28571 4.57143 2.28571H2.28571V4.57143ZM0 11.4286C0 10.8 0.514286 10.2857 1.14286 10.2857C1.77143 10.2857 2.28571 10.8 2.28571 11.4286V13.7143H4.57143C5.2 13.7143 5.71429 14.2286 5.71429 14.8572C5.71429 15.4857 5.2 16 4.57143 16H1.14286C0.514286 16 0 15.4857 0 14.8572V11.4286ZM13.7143 13.7143H11.4286C10.8 13.7143 10.2857 14.2286 10.2857 14.8572C10.2857 15.4857 10.8 16 11.4286 16H14.8572C15.4857 16 16 15.4857 16 14.8572V11.4286C16 10.8 15.4857 10.2857 14.8572 10.2857C14.2286 10.2857 13.7143 10.8 13.7143 11.4286V13.7143ZM11.4286 2.28571C10.8 2.28571 10.2857 1.77143 10.2857 1.14286C10.2857 0.514286 10.8 0 11.4286 0H14.8572C15.4857 0 16 0.514286 16 1.14286V4.57143C16 5.2 15.4857 5.71429 14.8572 5.71429C14.2286 5.71429 13.7143 5.2 13.7143 4.57143V2.28571H11.4286Z" fill="white"/>
</svg>
