<svg width="16" height="14" viewBox="0 0 16 14" fill="none" xmlns="http://www.w3.org/2000/svg">
<path d="M14.5 0H1.5C0.671562 0 0 0.671562 0 1.5V12.5C0 13.3284 0.671562 14 1.5 14H14.5C15.3284 14 16 13.3284 16 12.5V1.5C16 0.671562 15.3284 0 14.5 0ZM14.3125 12.5H1.6875C1.63777 12.5 1.59008 12.4802 1.55492 12.4451C1.51975 12.4099 1.5 12.3622 1.5 12.3125V1.6875C1.5 1.63777 1.51975 1.59008 1.55492 1.55492C1.59008 1.51975 1.63777 1.5 1.6875 1.5H14.3125C14.3622 1.5 14.4099 1.51975 14.4451 1.55492C14.4802 1.59008 14.5 1.63777 14.5 1.6875V12.3125C14.5 12.3622 14.4802 12.4099 14.4451 12.4451C14.4099 12.4802 14.3622 12.5 14.3125 12.5ZM13 9.625V10.375C13 10.5821 12.8321 10.75 12.625 10.75H6.375C6.16791 10.75 6 10.5821 6 10.375V9.625C6 9.41791 6.16791 9.25 6.375 9.25H12.625C12.8321 9.25 13 9.41791 13 9.625ZM13 6.625V7.375C13 7.58209 12.8321 7.75 12.625 7.75H6.375C6.16791 7.75 6 7.58209 6 7.375V6.625C6 6.41791 6.16791 6.25 6.375 6.25H12.625C12.8321 6.25 13 6.41791 13 6.625ZM13 3.625V4.375C13 4.58209 12.8321 4.75 12.625 4.75H6.375C6.16791 4.75 6 4.58209 6 4.375V3.625C6 3.41791 6.16791 3.25 6.375 3.25H12.625C12.8321 3.25 13 3.41791 13 3.625ZM5.125 4C5.125 4.62131 4.62131 5.125 4 5.125C3.37869 5.125 2.875 4.62131 2.875 4C2.875 3.37869 3.37869 2.875 4 2.875C4.62131 2.875 5.125 3.37869 5.125 4ZM5.125 7C5.125 7.62131 4.62131 8.125 4 8.125C3.37869 8.125 2.875 7.62131 2.875 7C2.875 6.37869 3.37869 5.875 4 5.875C4.62131 5.875 5.125 6.37869 5.125 7ZM5.125 10C5.125 10.6213 4.62131 11.125 4 11.125C3.37869 11.125 2.875 10.6213 2.875 10C2.875 9.37869 3.37869 8.875 4 8.875C4.62131 8.875 5.125 9.37869 5.125 10Z" fill="white"/>
</svg>
