<svg width="18" height="18" viewBox="0 0 18 18" fill="none" xmlns="http://www.w3.org/2000/svg">
<path fill-rule="evenodd" clip-rule="evenodd" d="M9.00075 0C6.5565 0 6.24975 0.0106875 5.28975 0.054375C4.33162 0.09825 3.67763 0.249937 3.10538 0.4725C2.51344 0.702375 2.01131 1.00988 1.51106 1.51031C1.01044 2.01056 0.702938 2.51269 0.472313 3.10444C0.249188 3.67688 0.0973125 4.33106 0.0541875 5.28881C0.01125 6.24881 0 6.55575 0 9C0 11.4443 0.010875 11.7501 0.054375 12.7101C0.0984375 13.6682 0.250125 14.3222 0.4725 14.8944C0.702563 15.4864 1.01006 15.9885 1.5105 16.4888C2.01056 16.9894 2.51269 17.2976 3.10425 17.5275C3.67688 17.7501 4.33106 17.9018 5.289 17.9456C6.249 17.9893 6.55556 18 8.99963 18C11.4441 18 11.7499 17.9893 12.7099 17.9456C13.668 17.9018 14.3228 17.7501 14.8954 17.5275C15.4871 17.2976 15.9885 16.9894 16.4886 16.4888C16.9892 15.9885 17.2967 15.4864 17.5273 14.8946C17.7486 14.3222 17.9004 13.668 17.9454 12.7102C17.9886 11.7502 17.9998 11.4443 17.9998 9C17.9998 6.55575 17.9886 6.249 17.9454 5.289C17.9004 4.33087 17.7486 3.67688 17.5273 3.10463C17.2967 2.51269 16.9892 2.01056 16.4886 1.51031C15.9879 1.00969 15.4873 0.702188 14.8948 0.4725C14.3211 0.249937 13.6667 0.09825 12.7086 0.054375C11.7486 0.0106875 11.4429 0 8.99794 0H9.00075ZM13.8049 3.11625C13.2086 3.11625 12.7249 3.59944 12.7249 4.19588C12.7249 4.79213 13.2086 5.27588 13.8049 5.27588C14.4011 5.27588 14.8849 4.79213 14.8849 4.19588C14.8849 3.59963 14.4011 3.11588 13.8049 3.11588V3.11625ZM9.00052 4.37813C6.44817 4.37823 4.37883 6.44763 4.37883 9C4.37883 11.5524 6.44827 13.6209 9.00071 13.6209C11.5531 13.6209 13.6218 11.5524 13.6218 9C13.6218 6.44756 11.553 4.37813 9.00052 4.37813ZM9.00079 6C10.6575 6 12.0008 7.34306 12.0008 9C12.0008 10.6567 10.6575 12 9.00079 12C7.34385 12 6.00078 10.6567 6.00078 9C6.00078 7.34306 7.34385 6 9.00079 6Z" fill="#FBFBFB"/>
</svg>
