<svg width="18" height="18" viewBox="0 0 18 18" fill="none" xmlns="http://www.w3.org/2000/svg">
<path fill-rule="evenodd" clip-rule="evenodd" d="M0 8.99951C0 13.9697 4.0286 18 9 18C13.9704 18 18 13.9697 18 8.99951C18 4.02934 13.9704 0 9 0C4.0286 0 0 4.02934 0 8.99951ZM6.0162 16.5953C2.98246 15.4068 0.832721 12.4551 0.832721 9.00032C0.832721 4.49478 4.48439 0.844267 8.98921 0.844267C13.494 0.844267 17.1457 4.49478 17.1457 9.00032C17.1457 13.5049 13.494 17.1564 8.98921 17.1564C8.14763 17.1564 7.3369 17.0291 6.57437 16.792C6.90599 16.2502 7.40342 15.3624 7.58754 14.6539C7.68683 14.2722 8.09558 12.7154 8.09558 12.7154C8.36164 13.2225 9.13863 13.6524 9.96576 13.6524C12.4249 13.6524 14.1978 11.39 14.1978 8.57907C14.1978 5.8848 11.9989 3.8682 9.16948 3.8682C5.64988 3.8682 3.78066 6.23183 3.78066 8.80463C3.78066 9.99994 4.41691 11.4902 5.43491 11.9645C5.59011 12.0358 5.67302 12.004 5.70869 11.8546C5.71961 11.8089 5.74872 11.6909 5.78359 11.5495C5.83483 11.3416 5.89851 11.0833 5.93523 10.9302C5.95451 10.8473 5.94487 10.7769 5.87835 10.6959C5.54095 10.2872 5.27199 9.53531 5.27199 8.83452C5.27199 7.03577 6.63414 5.29486 8.95451 5.29486C10.9587 5.29486 12.3613 6.65983 12.3613 8.61281C12.3613 10.8193 11.2469 12.3481 9.79705 12.3481C8.99693 12.3481 8.39731 11.6869 8.58915 10.8742C8.67239 10.5239 8.78368 10.1636 8.8919 9.81329C9.08322 9.19395 9.26492 8.60578 9.26492 8.15878C9.26492 7.53221 8.92848 7.00974 8.23343 7.00974C7.41402 7.00974 6.75753 7.8561 6.75753 8.99068C6.75753 9.71268 7.00142 10.2014 7.00142 10.2014C7.00142 10.2014 6.19262 13.6186 6.04513 14.2549C5.88124 14.9605 5.94487 15.9505 6.0162 16.5953Z" fill="#FBFBFB"/>
</svg>
