<svg width="33" height="23" viewBox="0 0 33 23" fill="none" xmlns="http://www.w3.org/2000/svg">
<path fill-rule="evenodd" clip-rule="evenodd" d="M0.025898 7.68505C-0.0451813 6.59696 -0.0220833 5.23728 0.788883 3.62756C1.33803 2.53711 2.1226 1.5767 3.37085 0.897306C4.19291 0.449982 5.04437 0.137413 5.97231 0.0403996C6.01729 0.035387 6.06258 0.0312557 6.10817 0.027422C6.29741 0.0114994 6.48786 0.000591278 6.6819 0.000295639C6.6852 0.000295639 6.6885 0 6.6918 0C6.6924 0 6.6936 0 6.6945 0C6.6954 0 6.6957 0 6.6966 0C6.6978 0 6.699 0 6.7002 0C8.34013 0.00118065 9.75063 0.27276 10.9308 0.815626C12.1134 1.35908 13.0797 2.06089 13.8292 2.91956C14.5795 3.77854 15.1269 4.72302 15.4733 5.75361C15.8194 6.7842 15.9921 7.7859 15.9921 8.75928C15.9921 10.8485 15.6751 12.6664 15.0405 14.2124C14.4065 15.7582 13.5478 17.1172 12.4667 18.2914C11.3852 19.465 6.6999 23 0.16806 23V21.0529C1.94565 20.3836 3.1975 19.3235 3.92239 17.8736C4.64818 16.4234 5.01078 15.6163 5.01078 13.791V13.5189C1.62564 12.5063 0.23494 10.8783 0.025898 7.68505ZM20.3787 0.897306C21.2008 0.449982 22.0519 0.137413 22.9802 0.0403996C23.0251 0.035387 23.0704 0.0312557 23.1157 0.027422C23.305 0.0114994 23.4954 0.000591278 23.6898 0.000295639C23.6928 0.000295639 23.6964 0 23.6994 0C23.7003 0 23.7015 0 23.7023 0C23.7032 0 23.7035 0 23.7044 0C23.7056 0 23.7068 0 23.708 0C25.348 0.00118065 26.7585 0.27276 27.9386 0.815626C29.1212 1.35908 30.0875 2.06089 30.837 2.91956C31.5871 3.77854 32.1347 4.72302 32.4808 5.75361C32.8272 6.7842 33 7.7859 33 8.75928C33 10.8485 32.683 12.6664 32.0481 14.2124C31.4144 15.7582 30.5557 17.1172 29.4745 18.2914C28.393 19.465 23.7077 23 17.1759 23V21.0529C18.9535 20.3836 20.2053 19.3235 20.9302 17.8736C21.656 16.4234 22.0186 15.6163 22.0186 13.791V13.5189C18.6335 12.5063 17.2428 10.8783 17.0338 7.68505C16.9624 6.59696 16.9858 5.23728 17.7967 3.62756C18.3459 2.53711 19.1305 1.5767 20.3787 0.897306Z" fill="#B9A090"/>
</svg>
