<svg width="22" height="11" viewBox="0 0 22 11" fill="none" xmlns="http://www.w3.org/2000/svg">
<path fill-rule="evenodd" clip-rule="evenodd" d="M10.7969 10.9308H12.1308C12.1308 10.9308 12.5309 10.8727 12.731 10.6983C12.9311 10.5238 12.9311 10.175 12.9311 10.175C12.9311 10.175 12.9311 8.66328 13.7314 8.43071C14.5317 8.19814 15.5988 9.94242 16.6659 10.582C17.4662 11.1053 18.0665 10.989 18.0665 10.989L21.001 10.9308C21.001 10.9308 22.5349 10.8727 21.8013 9.76799C21.7346 9.70985 21.4011 9.01214 19.6004 7.55857C17.733 6.04685 17.9998 6.33757 20.2007 3.72114C21.5345 2.15128 22.0681 1.221 21.9347 0.755856C21.8013 0.348856 20.8009 0.465142 20.8009 0.465142H17.4662C17.4662 0.465142 17.1995 0.406999 17.0661 0.523285C16.866 0.639571 16.7993 0.813999 16.7993 0.813999C16.7993 0.813999 16.2658 2.035 15.5988 3.08157C14.1316 5.23285 13.5313 5.34914 13.3312 5.23285C12.7977 4.94214 12.9311 3.95371 12.9311 3.31414C12.9311 1.221 13.3312 0.348856 12.1975 0.116285C11.864 0.0581421 11.5972 0 10.6635 0C9.46304 0 8.46264 -2.25263e-07 7.92909 0.232571C7.52893 0.406999 7.26216 0.755856 7.46224 0.755856C7.66232 0.755856 8.19587 0.872142 8.46264 1.16286C8.72941 1.68614 8.72941 2.55828 8.72941 2.55828C8.72941 2.55828 8.92949 5.05842 8.26256 5.34914C7.7957 5.58171 7.19547 5.11657 5.8616 3.13971C5.19467 2.15128 4.66112 0.988427 4.66112 0.988427C4.66112 0.988427 4.59443 0.755857 4.39435 0.639571C4.19427 0.523286 3.8608 0.465142 3.8608 0.465142H0.726216C0.726216 0.465142 0.259363 0.465143 0.0592829 0.639571C-0.0741037 0.814 0.0592829 1.10471 0.0592829 1.10471C0.0592829 1.10471 2.52693 6.10499 5.32805 8.66328C7.92909 11.1053 10.7969 10.9308 10.7969 10.9308V10.9308Z" fill="white"/>
</svg>
