<svg width="18" height="13" viewBox="0 0 18 13" fill="none" xmlns="http://www.w3.org/2000/svg">
<path fill-rule="evenodd" clip-rule="evenodd" d="M16.0324 0.386247C16.8069 0.598777 17.4168 1.22499 17.6238 2.02023C18 3.46151 18 6.46875 18 6.46875C18 6.46875 18 9.47588 17.6238 10.9173C17.4168 11.7125 16.8069 12.3387 16.0324 12.5514C14.6288 12.9375 9 12.9375 9 12.9375C9 12.9375 3.37122 12.9375 1.96752 12.5514C1.19301 12.3387 0.583057 11.7125 0.376057 10.9173C0 9.47588 0 6.46875 0 6.46875C0 6.46875 0 3.46151 0.376057 2.02023C0.583057 1.22499 1.19301 0.598777 1.96752 0.386247C3.37122 0 9 0 9 0C9 0 14.6288 0 16.0324 0.386247ZM7.3125 3.9375V9.5625L11.8125 6.75011L7.3125 3.9375Z" fill="#FBFBFB"/>
</svg>
